<svg width="109" height="1117" viewBox="0 0 109 1117" fill="none" xmlns="http://www.w3.org/2000/svg">
<path d="M0 0H109V228.547H0V0Z" fill="#01F9E1"/>
<path d="M41.3834 97.9934H47.0634V99.3854H42.8714V102.841H46.0234V104.233H42.8714V108.713H41.3834V97.9934ZM48.1728 101.353H49.5168V102.425C50.0288 101.593 50.7168 101.177 51.5968 101.177C51.7888 101.177 51.9808 101.209 52.0928 101.225L51.8688 102.729C51.6768 102.665 51.4848 102.633 51.3088 102.633C50.2368 102.633 49.5488 103.337 49.5488 104.489V108.713H48.1728V101.353ZM56.4253 108.889C54.1693 108.889 52.5853 107.257 52.5853 105.033C52.5853 102.825 54.1373 101.177 56.2813 101.177C58.2813 101.177 59.8173 102.649 59.8173 104.777C59.8173 104.985 59.8013 105.193 59.7693 105.433H54.0253C54.2013 106.777 55.0973 107.593 56.5053 107.593C57.4333 107.593 58.1853 107.241 58.7773 106.521L59.6413 107.337C58.8733 108.361 57.7053 108.889 56.4253 108.889ZM58.3773 104.297C58.1853 103.081 57.3853 102.409 56.2333 102.409C55.0653 102.409 54.2653 103.129 54.0573 104.297H58.3773ZM64.9409 108.889C62.6849 108.889 61.1009 107.257 61.1009 105.033C61.1009 102.825 62.6529 101.177 64.7969 101.177C66.7969 101.177 68.3329 102.649 68.3329 104.777C68.3329 104.985 68.3169 105.193 68.2849 105.433H62.5409C62.7169 106.777 63.6129 107.593 65.0209 107.593C65.9489 107.593 66.7009 107.241 67.2929 106.521L68.1569 107.337C67.3889 108.361 66.2209 108.889 64.9409 108.889ZM66.8929 104.297C66.7009 103.081 65.9009 102.409 64.7489 102.409C63.5809 102.409 62.7809 103.129 62.5729 104.297H66.8929ZM17.576 116.705H18.136L22.328 127.713H20.744L19.848 125.265H15.88L14.984 127.713H13.4L17.576 116.705ZM19.336 123.873L17.864 119.841L16.392 123.873H19.336ZM26.3504 127.889C25.0544 127.889 23.9024 127.393 23.1344 126.385L24.0464 125.441C24.7344 126.289 25.5024 126.641 26.4144 126.641C27.2944 126.641 27.8704 126.289 27.8704 125.729C27.8704 125.217 27.4224 124.929 26.3184 124.657C24.4144 124.193 23.6144 123.489 23.6144 122.337C23.6144 121.009 24.6704 120.177 26.2864 120.177C27.4384 120.177 28.4464 120.609 29.1984 121.441L28.3184 122.369C27.7264 121.681 27.0224 121.425 26.2384 121.425C25.4544 121.425 24.9904 121.729 24.9904 122.225C24.9904 122.737 25.4224 123.009 26.5104 123.281C28.4464 123.729 29.2464 124.465 29.2464 125.617C29.2464 126.977 28.0784 127.889 26.3504 127.889ZM33.5066 127.889C32.2106 127.889 31.0586 127.393 30.2906 126.385L31.2026 125.441C31.8906 126.289 32.6586 126.641 33.5706 126.641C34.4506 126.641 35.0266 126.289 35.0266 125.729C35.0266 125.217 34.5786 124.929 33.4746 124.657C31.5706 124.193 30.7706 123.489 30.7706 122.337C30.7706 121.009 31.8266 120.177 33.4426 120.177C34.5946 120.177 35.6026 120.609 36.3546 121.441L35.4746 122.369C34.8826 121.681 34.1786 121.425 33.3946 121.425C32.6106 121.425 32.1466 121.729 32.1466 122.225C32.1466 122.737 32.5786 123.009 33.6666 123.281C35.6026 123.729 36.4026 124.465 36.4026 125.617C36.4026 126.977 35.2346 127.889 33.5066 127.889ZM41.5269 127.889C39.2709 127.889 37.6869 126.257 37.6869 124.033C37.6869 121.825 39.2389 120.177 41.3829 120.177C43.3829 120.177 44.9189 121.649 44.9189 123.777C44.9189 123.985 44.9029 124.193 44.8709 124.433H39.1269C39.3029 125.777 40.1989 126.593 41.6069 126.593C42.5349 126.593 43.2869 126.241 43.8789 125.521L44.7429 126.337C43.9749 127.361 42.8069 127.889 41.5269 127.889ZM43.4789 123.297C43.2869 122.081 42.4869 121.409 41.3349 121.409C40.1669 121.409 39.3669 122.129 39.1589 123.297H43.4789ZM49.1785 127.889C47.8825 127.889 46.7305 127.393 45.9625 126.385L46.8745 125.441C47.5625 126.289 48.3305 126.641 49.2425 126.641C50.1225 126.641 50.6985 126.289 50.6985 125.729C50.6985 125.217 50.2505 124.929 49.1465 124.657C47.2425 124.193 46.4425 123.489 46.4425 122.337C46.4425 121.009 47.4985 120.177 49.1145 120.177C50.2665 120.177 51.2745 120.609 52.0265 121.441L51.1465 122.369C50.5545 121.681 49.8505 121.425 49.0665 121.425C48.2825 121.425 47.8185 121.729 47.8185 122.225C47.8185 122.737 48.2505 123.009 49.3385 123.281C51.2745 123.729 52.0745 124.465 52.0745 125.617C52.0745 126.977 50.9065 127.889 49.1785 127.889ZM56.3348 127.889C55.0388 127.889 53.8868 127.393 53.1188 126.385L54.0308 125.441C54.7188 126.289 55.4868 126.641 56.3988 126.641C57.2788 126.641 57.8548 126.289 57.8548 125.729C57.8548 125.217 57.4068 124.929 56.3028 124.657C54.3988 124.193 53.5988 123.489 53.5988 122.337C53.5988 121.009 54.6548 120.177 56.2708 120.177C57.4227 120.177 58.4308 120.609 59.1828 121.441L58.3028 122.369C57.7108 121.681 57.0068 121.425 56.2228 121.425C55.4388 121.425 54.9748 121.729 54.9748 122.225C54.9748 122.737 55.4068 123.009 56.4948 123.281C58.4308 123.729 59.2308 124.465 59.2308 125.617C59.2308 126.977 58.0628 127.889 56.3348 127.889ZM60.915 120.353H62.259V121.345C62.851 120.561 63.587 120.177 64.483 120.177C65.523 120.177 66.387 120.721 66.851 121.569C67.427 120.673 68.275 120.177 69.315 120.177C71.027 120.177 72.227 121.473 72.227 123.185V127.713H70.851V123.441C70.851 122.225 70.163 121.425 69.075 121.425C67.987 121.425 67.267 122.241 67.267 123.457V127.713H65.891V123.441C65.891 122.225 65.187 121.425 64.099 121.425C63.011 121.425 62.291 122.241 62.291 123.457V127.713H60.915V120.353ZM77.6675 127.889C75.4115 127.889 73.8275 126.257 73.8275 124.033C73.8275 121.825 75.3795 120.177 77.5235 120.177C79.5235 120.177 81.0595 121.649 81.0595 123.777C81.0595 123.985 81.0435 124.193 81.0115 124.433H75.2675C75.4435 125.777 76.3395 126.593 77.7475 126.593C78.6755 126.593 79.4275 126.241 80.0195 125.521L80.8835 126.337C80.1155 127.361 78.9475 127.889 77.6675 127.889ZM79.6195 123.297C79.4275 122.081 78.6275 121.409 77.4755 121.409C76.3075 121.409 75.5075 122.129 75.2995 123.297H79.6195ZM82.7431 120.353H84.0871V121.345C84.6791 120.561 85.4151 120.177 86.3111 120.177C87.9271 120.177 89.0951 121.457 89.0951 123.185V127.713H87.7191V123.441C87.7191 122.225 87.0151 121.425 85.9271 121.425C84.8391 121.425 84.1191 122.241 84.1191 123.457V127.713H82.7431V120.353ZM93.8545 127.889C92.4625 127.889 91.6625 126.993 91.6625 125.569V121.601H90.5425V120.353H91.6625V118.369H93.0385V120.353H95.1345V121.601H93.0385V125.489C93.0385 126.241 93.3905 126.641 94.0305 126.641C94.4305 126.641 94.7985 126.481 95.1185 126.161L95.7585 127.073C95.2945 127.585 94.6385 127.889 93.8545 127.889Z" fill="black"/>
<rect y="228.547" width="109" height="222.37" fill="#242424"/>
<path d="M20.86 323.452H23.676C25.852 323.452 27.404 324.812 27.404 326.7C27.404 328.108 26.54 329.26 25.196 329.708L28.076 334.172H26.316L23.596 329.948H22.348V334.172H20.86V323.452ZM23.628 328.556C25.036 328.556 25.916 327.852 25.916 326.7C25.916 325.564 25.02 324.844 23.628 324.844H22.348V328.556H23.628ZM32.8081 334.348C30.5521 334.348 28.9681 332.716 28.9681 330.492C28.9681 328.284 30.5201 326.636 32.6641 326.636C34.6641 326.636 36.2001 328.108 36.2001 330.236C36.2001 330.444 36.1841 330.652 36.1521 330.892H30.4081C30.5841 332.236 31.4801 333.052 32.8881 333.052C33.8161 333.052 34.5681 332.7 35.1601 331.98L36.0241 332.796C35.2561 333.82 34.0881 334.348 32.8081 334.348ZM34.7601 329.756C34.5681 328.54 33.7681 327.868 32.6161 327.868C31.4481 327.868 30.6481 328.588 30.4401 329.756H34.7601ZM40.4598 334.348C39.1638 334.348 38.0118 333.852 37.2438 332.844L38.1558 331.9C38.8438 332.748 39.6118 333.1 40.5238 333.1C41.4038 333.1 41.9798 332.748 41.9798 332.188C41.9798 331.676 41.5318 331.388 40.4278 331.116C38.5238 330.652 37.7238 329.948 37.7238 328.796C37.7238 327.468 38.7798 326.636 40.3958 326.636C41.5477 326.636 42.5558 327.068 43.3078 327.9L42.4278 328.828C41.8358 328.14 41.1318 327.884 40.3478 327.884C39.5638 327.884 39.0998 328.188 39.0998 328.684C39.0998 329.196 39.5318 329.468 40.6198 329.74C42.5558 330.188 43.3558 330.924 43.3558 332.076C43.3558 333.436 42.1878 334.348 40.4598 334.348ZM48.464 334.348C46.336 334.348 44.64 332.62 44.64 330.492C44.64 328.364 46.336 326.636 48.464 326.636C50.576 326.636 52.272 328.364 52.272 330.492C52.272 332.62 50.576 334.348 48.464 334.348ZM48.464 333.052C49.856 333.052 50.848 331.98 50.848 330.492C50.848 329.004 49.856 327.932 48.464 327.932C47.056 327.932 46.064 329.004 46.064 330.492C46.064 331.98 47.056 333.052 48.464 333.052ZM56.6503 334.348C55.0343 334.348 53.8663 333.068 53.8663 331.34V326.812H55.2423V331.084C55.2423 332.3 55.9463 333.1 57.0343 333.1C58.1223 333.1 58.8423 332.284 58.8423 331.068V326.812H60.2183V334.172H58.8743V333.18C58.2823 333.964 57.5463 334.348 56.6503 334.348ZM62.3056 326.812H63.6496V327.884C64.1616 327.052 64.8496 326.636 65.7296 326.636C65.9216 326.636 66.1136 326.668 66.2256 326.684L66.0016 328.188C65.8096 328.124 65.6176 328.092 65.4416 328.092C64.3696 328.092 63.6816 328.796 63.6816 329.948V334.172H62.3056V326.812ZM70.5421 334.348C68.3981 334.348 66.7181 332.668 66.7181 330.508C66.7181 328.38 68.4141 326.636 70.5421 326.636C71.7741 326.636 72.8941 327.196 73.6141 328.156L72.6381 329.02C72.0941 328.3 71.3901 327.932 70.5421 327.932C69.1341 327.932 68.1421 329.02 68.1421 330.476C68.1421 331.964 69.1661 333.052 70.5901 333.052C71.4701 333.052 72.1741 332.668 72.7341 331.964L73.6621 332.796C72.9581 333.756 71.8221 334.348 70.5421 334.348ZM78.3081 334.348C76.0521 334.348 74.4681 332.716 74.4681 330.492C74.4681 328.284 76.0201 326.636 78.1641 326.636C80.1641 326.636 81.7001 328.108 81.7001 330.236C81.7001 330.444 81.6841 330.652 81.6521 330.892H75.9081C76.0841 332.236 76.9801 333.052 78.3881 333.052C79.3161 333.052 80.0681 332.7 80.6601 331.98L81.5241 332.796C80.7561 333.82 79.5881 334.348 78.3081 334.348ZM80.2601 329.756C80.0681 328.54 79.2681 327.868 78.1161 327.868C76.9481 327.868 76.1481 328.588 75.9401 329.756H80.2601ZM85.9598 334.348C84.6638 334.348 83.5118 333.852 82.7438 332.844L83.6558 331.9C84.3438 332.748 85.1118 333.1 86.0238 333.1C86.9038 333.1 87.4798 332.748 87.4798 332.188C87.4798 331.676 87.0318 331.388 85.9278 331.116C84.0238 330.652 83.2238 329.948 83.2238 328.796C83.2238 327.468 84.2798 326.636 85.8958 326.636C87.0477 326.636 88.0558 327.068 88.8078 327.9L87.9278 328.828C87.3358 328.14 86.6318 327.884 85.8478 327.884C85.0638 327.884 84.5998 328.188 84.5998 328.684C84.5998 329.196 85.0318 329.468 86.1198 329.74C88.0558 330.188 88.8558 330.924 88.8558 332.076C88.8558 333.436 87.6878 334.348 85.9598 334.348ZM36.9456 351.764C36.0016 352.788 34.8176 353.348 33.4736 353.348C31.4736 353.348 29.9856 352.036 29.9856 350.276C29.9856 348.884 30.8816 347.668 32.4016 346.98C31.6976 346.164 31.3456 345.508 31.3456 344.724C31.3456 343.316 32.4816 342.276 33.9856 342.276C35.5536 342.276 36.7216 343.396 36.7216 344.884H35.2656C35.2656 344.116 34.7696 343.572 34.0016 343.572C33.2976 343.572 32.8016 344.004 32.8016 344.692C32.8016 345.22 33.0736 345.716 33.6336 346.292L36.8176 349.668C37.2496 348.756 37.4896 347.62 37.4896 346.292H40.2736V347.492H38.7536C38.6256 348.708 38.2736 349.732 37.7616 350.628L39.4896 352.436L38.4816 353.396L36.9456 351.764ZM33.5856 352.052C34.5616 352.052 35.4096 351.62 36.0656 350.868L33.2816 347.892C32.1296 348.292 31.4416 349.108 31.4416 350.148C31.4416 351.3 32.2576 352.052 33.5856 352.052ZM47.2928 343.844H43.8688V342.452H52.1888V343.844H48.7808V353.172H47.2928V343.844ZM55.7765 353.348C53.6485 353.348 51.9525 351.62 51.9525 349.492C51.9525 347.364 53.6485 345.636 55.7765 345.636C57.8885 345.636 59.5845 347.364 59.5845 349.492C59.5845 351.62 57.8885 353.348 55.7765 353.348ZM55.7765 352.052C57.1685 352.052 58.1605 350.98 58.1605 349.492C58.1605 348.004 57.1685 346.932 55.7765 346.932C54.3685 346.932 53.3765 348.004 53.3765 349.492C53.3765 350.98 54.3685 352.052 55.7765 352.052ZM64.6828 353.348C62.5548 353.348 60.8588 351.62 60.8588 349.492C60.8588 347.364 62.5548 345.636 64.6828 345.636C66.7948 345.636 68.4908 347.364 68.4908 349.492C68.4908 351.62 66.7948 353.348 64.6828 353.348ZM64.6828 352.052C66.0748 352.052 67.0668 350.98 67.0668 349.492C67.0668 348.004 66.0748 346.932 64.6828 346.932C63.2748 346.932 62.2828 348.004 62.2828 349.492C62.2828 350.98 63.2748 352.052 64.6828 352.052ZM70.165 341.812H71.541V353.172H70.165V341.812ZM76.1941 353.348C74.8981 353.348 73.7461 352.852 72.9781 351.844L73.8901 350.9C74.5781 351.748 75.3461 352.1 76.2581 352.1C77.1381 352.1 77.7141 351.748 77.7141 351.188C77.7141 350.676 77.2661 350.388 76.1621 350.116C74.2581 349.652 73.4581 348.948 73.4581 347.796C73.4581 346.468 74.5141 345.636 76.1301 345.636C77.2821 345.636 78.2901 346.068 79.0421 346.9L78.1621 347.828C77.5701 347.14 76.8661 346.884 76.0821 346.884C75.2981 346.884 74.8341 347.188 74.8341 347.684C74.8341 348.196 75.2661 348.468 76.3541 348.74C78.2901 349.188 79.0901 349.924 79.0901 351.076C79.0901 352.436 77.9221 353.348 76.1941 353.348Z" fill="#E2E2E2"/>
<rect y="450.918" width="109" height="222.37" fill="#242424"/>
<path d="M24.7897 556.118H27.5577C29.7657 556.118 31.3337 557.51 31.3337 559.462C31.3337 561.43 29.7657 562.822 27.5897 562.822H26.2777V566.838H24.7897V556.118ZM27.5577 561.43C28.9497 561.43 29.8457 560.678 29.8457 559.462C29.8457 558.262 28.9497 557.51 27.5577 557.51H26.2777V561.43H27.5577ZM35.8781 567.014C33.7501 567.014 32.0541 565.286 32.0541 563.158C32.0541 561.03 33.7501 559.302 35.8781 559.302C37.9901 559.302 39.6861 561.03 39.6861 563.158C39.6861 565.286 37.9901 567.014 35.8781 567.014ZM35.8781 565.718C37.2701 565.718 38.2621 564.646 38.2621 563.158C38.2621 561.67 37.2701 560.598 35.8781 560.598C34.4701 560.598 33.4781 561.67 33.4781 563.158C33.4781 564.646 34.4701 565.718 35.8781 565.718ZM44.4963 567.014C42.5123 567.014 40.9603 565.334 40.9603 563.158C40.9603 561.03 42.5443 559.302 44.5443 559.302C45.5683 559.302 46.4323 559.734 47.0083 560.454V555.478H48.3843V566.838H47.0563V565.734C46.4803 566.518 45.5843 567.014 44.4963 567.014ZM44.7523 565.718C46.1603 565.718 47.1523 564.63 47.1523 563.158C47.1523 561.67 46.1603 560.598 44.7523 560.598C43.3923 560.598 42.3843 561.67 42.3843 563.158C42.3843 564.646 43.4083 565.718 44.7523 565.718ZM53.8937 567.014C51.7497 567.014 50.0697 565.334 50.0697 563.174C50.0697 561.046 51.7657 559.302 53.8937 559.302C55.1257 559.302 56.2457 559.862 56.9657 560.822L55.9897 561.686C55.4457 560.966 54.7417 560.598 53.8937 560.598C52.4857 560.598 51.4937 561.686 51.4937 563.142C51.4937 564.63 52.5177 565.718 53.9417 565.718C54.8217 565.718 55.5257 565.334 56.0857 564.63L57.0137 565.462C56.3097 566.422 55.1737 567.014 53.8937 567.014ZM60.6282 567.014C59.1402 567.014 58.0522 566.054 58.0522 564.71C58.0522 563.318 59.2682 562.294 60.9162 562.294C61.6842 562.294 62.3402 562.454 62.9802 562.822V562.454C62.9802 561.302 62.2602 560.55 61.1722 560.55C60.4682 560.55 59.8922 560.854 59.4442 561.462L58.5162 560.55C59.2682 559.718 60.1802 559.302 61.2522 559.302C63.0762 559.302 64.3562 560.598 64.3562 562.39V566.838H62.9802V565.862C62.3562 566.63 61.5722 567.014 60.6282 567.014ZM60.9162 565.846C62.0682 565.846 62.8842 565.11 62.9642 564.022C62.3082 563.574 61.7482 563.382 60.9962 563.382C60.0362 563.382 59.4282 563.878 59.4282 564.63C59.4282 565.382 60.0042 565.846 60.9162 565.846ZM68.9363 567.014C67.6403 567.014 66.4883 566.518 65.7203 565.51L66.6323 564.566C67.3203 565.414 68.0883 565.766 69.0003 565.766C69.8803 565.766 70.4563 565.414 70.4563 564.854C70.4563 564.342 70.0083 564.054 68.9043 563.782C67.0003 563.318 66.2003 562.614 66.2003 561.462C66.2003 560.134 67.2563 559.302 68.8723 559.302C70.0243 559.302 71.0323 559.734 71.7843 560.566L70.9043 561.494C70.3123 560.806 69.6083 560.55 68.8243 560.55C68.0403 560.55 67.5763 560.854 67.5763 561.35C67.5763 561.862 68.0083 562.134 69.0963 562.406C71.0323 562.854 71.8323 563.59 71.8323 564.742C71.8323 566.102 70.6643 567.014 68.9363 567.014ZM76.2686 567.014C74.8766 567.014 74.0766 566.118 74.0766 564.694V560.726H72.9566V559.478H74.0766V557.494H75.4526V559.478H77.5486V560.726H75.4526V564.614C75.4526 565.366 75.8046 565.766 76.4446 565.766C76.8446 565.766 77.2126 565.606 77.5326 565.286L78.1726 566.198C77.7086 566.71 77.0526 567.014 76.2686 567.014ZM82.0301 567.014C80.7341 567.014 79.5821 566.518 78.8141 565.51L79.7261 564.566C80.4141 565.414 81.1821 565.766 82.0941 565.766C82.9741 565.766 83.5501 565.414 83.5501 564.854C83.5501 564.342 83.1021 564.054 81.9981 563.782C80.0941 563.318 79.2941 562.614 79.2941 561.462C79.2941 560.134 80.3501 559.302 81.9661 559.302C83.1181 559.302 84.1261 559.734 84.8781 560.566L83.9981 561.494C83.4061 560.806 82.7021 560.55 81.9181 560.55C81.1341 560.55 80.6701 560.854 80.6701 561.35C80.6701 561.862 81.1021 562.134 82.1901 562.406C84.1261 562.854 84.9261 563.59 84.9261 564.742C84.9261 566.102 83.7581 567.014 82.0301 567.014Z" fill="#E2E2E2"/>
<rect y="673.289" width="109" height="221.341" fill="#242424"/>
<path d="M29.3416 767.905H29.9016L34.0936 778.913H32.5096L31.6136 776.465H27.6456L26.7496 778.913H25.1656L29.3416 767.905ZM31.1016 775.073L29.6296 771.041L28.1576 775.073H31.1016ZM38.6195 777.793C40.0275 777.793 41.0195 776.705 41.0195 775.233C41.0195 773.745 40.0275 772.673 38.6195 772.673C37.2595 772.673 36.2515 773.745 36.2515 775.233C36.2515 776.721 37.2755 777.793 38.6195 777.793ZM40.8755 777.857C40.2995 778.609 39.4355 779.089 38.3635 779.089C36.3795 779.089 34.8275 777.409 34.8275 775.233C34.8275 773.105 36.4115 771.377 38.4115 771.377C39.4355 771.377 40.3315 771.825 40.9235 772.577V771.553H42.2515V782.913H40.8755V777.857ZM47.0409 779.089C45.4249 779.089 44.2569 777.809 44.2569 776.081V771.553H45.6329V775.825C45.6329 777.041 46.3369 777.841 47.4249 777.841C48.5129 777.841 49.2329 777.025 49.2329 775.809V771.553H50.6089V778.913H49.2649V777.921C48.6729 778.705 47.9369 779.089 47.0409 779.089ZM54.7923 779.089C53.3043 779.089 52.2163 778.129 52.2163 776.785C52.2163 775.393 53.4323 774.369 55.0803 774.369C55.8483 774.369 56.5043 774.529 57.1443 774.897V774.529C57.1443 773.377 56.4243 772.625 55.3363 772.625C54.6323 772.625 54.0563 772.929 53.6083 773.537L52.6803 772.625C53.4323 771.793 54.3443 771.377 55.4163 771.377C57.2403 771.377 58.5203 772.673 58.5203 774.465V778.913H57.1443V777.937C56.5203 778.705 55.7363 779.089 54.7923 779.089ZM55.0803 777.921C56.2323 777.921 57.0483 777.185 57.1283 776.097C56.4723 775.649 55.9123 775.457 55.1603 775.457C54.2003 775.457 53.5923 775.953 53.5923 776.705C53.5923 777.457 54.1683 777.921 55.0803 777.921ZM60.5244 771.553H61.8684V772.625C62.3804 771.793 63.0684 771.377 63.9484 771.377C64.1404 771.377 64.3324 771.409 64.4444 771.425L64.2204 772.929C64.0284 772.865 63.8364 772.833 63.6604 772.833C62.5884 772.833 61.9004 773.537 61.9004 774.689V778.913H60.5244V771.553ZM65.6334 771.553H67.0094V778.913H65.6334V771.553ZM66.3214 770.161C65.8094 770.161 65.4094 769.761 65.4094 769.249C65.4094 768.721 65.8094 768.321 66.3374 768.321C66.8334 768.321 67.2494 768.721 67.2494 769.249C67.2494 769.761 66.8334 770.161 66.3214 770.161ZM71.1829 779.089C69.6949 779.089 68.6069 778.129 68.6069 776.785C68.6069 775.393 69.8229 774.369 71.4709 774.369C72.2389 774.369 72.8949 774.529 73.5349 774.897V774.529C73.5349 773.377 72.8149 772.625 71.7269 772.625C71.0229 772.625 70.4469 772.929 69.9989 773.537L69.0709 772.625C69.8229 771.793 70.7349 771.377 71.8069 771.377C73.6309 771.377 74.9109 772.673 74.9109 774.465V778.913H73.5349V777.937C72.9109 778.705 72.1269 779.089 71.1829 779.089ZM71.4709 777.921C72.6229 777.921 73.4389 777.185 73.5189 776.097C72.8629 775.649 72.3029 775.457 71.5509 775.457C70.5909 775.457 69.9829 775.953 69.9829 776.705C69.9829 777.457 70.5589 777.921 71.4709 777.921ZM76.915 771.553H78.259V772.545C78.851 771.761 79.587 771.377 80.483 771.377C82.099 771.377 83.267 772.657 83.267 774.385V778.913H81.891V774.641C81.891 773.425 81.187 772.625 80.099 772.625C79.011 772.625 78.291 773.441 78.291 774.657V778.913H76.915V771.553ZM30.5789 798.105C29.0589 798.105 27.7629 797.401 26.9469 796.073L28.0669 795.145C28.7549 796.233 29.5709 796.713 30.5949 796.713C31.7309 796.713 32.4669 796.121 32.4669 795.145C32.4669 794.297 31.9069 793.705 30.4509 793.129C28.4669 792.313 27.6349 791.337 27.6349 789.929C27.6349 788.217 28.8989 787.017 30.7069 787.017C31.9869 787.017 33.0429 787.561 33.8909 788.665L32.8029 789.609C32.1789 788.777 31.5069 788.409 30.6909 788.409C29.7309 788.409 29.1229 788.937 29.1229 789.817C29.1229 790.649 29.6509 791.193 31.0589 791.753C33.0589 792.569 33.9549 793.577 33.9549 795.033C33.9549 796.841 32.5629 798.105 30.5789 798.105ZM39.1519 798.089C36.8959 798.089 35.3119 796.457 35.3119 794.233C35.3119 792.025 36.8639 790.377 39.0079 790.377C41.0079 790.377 42.5439 791.849 42.5439 793.977C42.5439 794.185 42.5279 794.393 42.4959 794.633H36.7519C36.9279 795.977 37.8239 796.793 39.2319 796.793C40.1599 796.793 40.9119 796.441 41.5039 795.721L42.3679 796.537C41.5999 797.561 40.4319 798.089 39.1519 798.089ZM41.1039 793.497C40.9119 792.281 40.1119 791.609 38.9599 791.609C37.7919 791.609 36.9919 792.329 36.7839 793.497H41.1039ZM44.2275 790.553H45.5715V791.625C46.0835 790.793 46.7715 790.377 47.6515 790.377C47.8435 790.377 48.0355 790.409 48.1475 790.425L47.9235 791.929C47.7315 791.865 47.5395 791.833 47.3635 791.833C46.2915 791.833 45.6035 792.537 45.6035 793.689V797.913H44.2275V790.553ZM48.4725 790.553H49.9445L51.9445 795.481L53.9605 790.553H55.4325L52.2325 798.201H51.6885L48.4725 790.553ZM56.6178 790.553H57.9938V797.913H56.6178V790.553ZM57.3058 789.161C56.7938 789.161 56.3938 788.761 56.3938 788.249C56.3938 787.721 56.7938 787.321 57.3218 787.321C57.8178 787.321 58.2338 787.721 58.2338 788.249C58.2338 788.761 57.8178 789.161 57.3058 789.161ZM63.4953 798.089C61.3513 798.089 59.6713 796.409 59.6713 794.249C59.6713 792.121 61.3673 790.377 63.4953 790.377C64.7273 790.377 65.8473 790.937 66.5673 791.897L65.5913 792.761C65.0473 792.041 64.3433 791.673 63.4953 791.673C62.0873 791.673 61.0953 792.761 61.0953 794.217C61.0953 795.705 62.1193 796.793 63.5433 796.793C64.4233 796.793 65.1273 796.409 65.6873 795.705L66.6153 796.537C65.9113 797.497 64.7753 798.089 63.4953 798.089ZM71.2613 798.089C69.0053 798.089 67.4213 796.457 67.4213 794.233C67.4213 792.025 68.9733 790.377 71.1173 790.377C73.1173 790.377 74.6533 791.849 74.6533 793.977C74.6533 794.185 74.6373 794.393 74.6053 794.633H68.8613C69.0373 795.977 69.9333 796.793 71.3413 796.793C72.2693 796.793 73.0213 796.441 73.6133 795.721L74.4773 796.537C73.7093 797.561 72.5413 798.089 71.2613 798.089ZM73.2133 793.497C73.0213 792.281 72.2213 791.609 71.0693 791.609C69.9013 791.609 69.1013 792.329 68.8932 793.497H73.2133ZM78.9129 798.089C77.6169 798.089 76.4649 797.593 75.6969 796.585L76.6089 795.641C77.2969 796.489 78.0649 796.841 78.9769 796.841C79.8569 796.841 80.4329 796.489 80.4329 795.929C80.4329 795.417 79.9849 795.129 78.8809 794.857C76.9769 794.393 76.1769 793.689 76.1769 792.537C76.1769 791.209 77.2329 790.377 78.8489 790.377C80.0009 790.377 81.0089 790.809 81.7609 791.641L80.8809 792.569C80.2889 791.881 79.5849 791.625 78.8009 791.625C78.0169 791.625 77.5529 791.929 77.5529 792.425C77.5529 792.937 77.9849 793.209 79.0729 793.481C81.0089 793.929 81.8089 794.665 81.8089 795.817C81.8089 797.177 80.6409 798.089 78.9129 798.089Z" fill="#E2E2E2"/>
<rect y="894.629" width="109" height="222.37" fill="#242424"/>
<path d="M37.6022 999.829H40.2582C42.2742 999.829 43.7142 1001.04 43.7142 1002.71C43.7142 1003.65 43.2342 1004.4 42.3862 1004.9C43.5542 1005.36 44.2742 1006.32 44.2742 1007.49C44.2742 1009.24 42.7062 1010.55 40.5302 1010.55H37.6022V999.829ZM40.5302 1009.16C41.8902 1009.16 42.7862 1008.52 42.7862 1007.43C42.7862 1006.36 41.8902 1005.72 40.5302 1005.72H39.0902V1009.16H40.5302ZM40.2582 1004.32C41.4742 1004.32 42.2262 1003.73 42.2262 1002.77C42.2262 1001.81 41.4582 1001.22 40.2582 1001.22H39.0902V1004.32H40.2582ZM46.1884 999.189H47.5644V1010.55H46.1884V999.189ZM53.0656 1010.72C50.9376 1010.72 49.2416 1009 49.2416 1006.87C49.2416 1004.74 50.9376 1003.01 53.0656 1003.01C55.1776 1003.01 56.8736 1004.74 56.8736 1006.87C56.8736 1009 55.1776 1010.72 53.0656 1010.72ZM53.0656 1009.43C54.4576 1009.43 55.4496 1008.36 55.4496 1006.87C55.4496 1005.38 54.4576 1004.31 53.0656 1004.31C51.6576 1004.31 50.6656 1005.38 50.6656 1006.87C50.6656 1008.36 51.6576 1009.43 53.0656 1009.43ZM61.8438 1013.38C63.2358 1013.38 64.0518 1012.88 64.0518 1012.05C64.0518 1011.22 63.2678 1010.72 61.8598 1010.72C60.4998 1010.72 59.6838 1011.2 59.6838 1012.05C59.6838 1012.88 60.4838 1013.38 61.8438 1013.38ZM61.6518 1007.35C62.7398 1007.35 63.4118 1006.72 63.4118 1005.76C63.4118 1004.8 62.7398 1004.18 61.6518 1004.18C60.5798 1004.18 59.9078 1004.8 59.9078 1005.76C59.9078 1006.72 60.5798 1007.35 61.6518 1007.35ZM61.8438 1014.55C59.6998 1014.55 58.3078 1013.57 58.3078 1012.1C58.3078 1011.27 58.7078 1010.64 59.5238 1010.24C58.8358 1009.99 58.4998 1009.56 58.4998 1008.96C58.4998 1008.4 58.8038 1007.96 59.3638 1007.7C58.8358 1007.2 58.5318 1006.55 58.5318 1005.76C58.5318 1004.15 59.8278 1003.01 61.6998 1003.01C62.0998 1003.01 62.4998 1003.08 62.8678 1003.19H65.4278V1004.28H64.3398C64.6438 1004.68 64.7878 1005.16 64.7878 1005.75C64.7878 1007.38 63.4918 1008.52 61.6678 1008.52C61.1718 1008.52 60.7238 1008.44 60.2918 1008.26C59.9558 1008.32 59.7798 1008.52 59.7798 1008.85C59.7798 1009.32 60.2598 1009.56 61.1078 1009.56H62.1318C64.1798 1009.56 65.4278 1010.52 65.4278 1012C65.4278 1013.56 64.0198 1014.55 61.8438 1014.55ZM69.2176 1010.72C67.9216 1010.72 66.7696 1010.23 66.0016 1009.22L66.9136 1008.28C67.6016 1009.12 68.3696 1009.48 69.2816 1009.48C70.1616 1009.48 70.7376 1009.12 70.7376 1008.56C70.7376 1008.05 70.2896 1007.76 69.1856 1007.49C67.2816 1007.03 66.4816 1006.32 66.4816 1005.17C66.4816 1003.84 67.5376 1003.01 69.1536 1003.01C70.3056 1003.01 71.3136 1003.44 72.0656 1004.28L71.1856 1005.2C70.5936 1004.52 69.8896 1004.26 69.1056 1004.26C68.3216 1004.26 67.8576 1004.56 67.8576 1005.06C67.8576 1005.57 68.2896 1005.84 69.3776 1006.12C71.3136 1006.56 72.1136 1007.3 72.1136 1008.45C72.1136 1009.81 70.9456 1010.72 69.2176 1010.72Z" fill="#E2E2E2"/>
</svg>
